<svg width="927.760009765625px" height="135.239990234375px" xmlns="http://www.w3.org/2000/svg" viewBox="-213.8800048828125 7.3800048828125 927.760009765625 135.239990234375" style="background: rgba(0, 0, 0, 0) none repeat scroll 0% 0%;" preserveAspectRatio="xMidYMid"><defs><filter id="editing-hole" x="-100%" y="-100%" width="300%" height="300%"><feFlood flood-color="#000" result="black"></feFlood><feMorphology operator="dilate" radius="2" in="SourceGraphic" result="erode"></feMorphology><feGaussianBlur in="erode" stdDeviation="4" result="blur"></feGaussianBlur><feOffset in="blur" dx="2" dy="2" result="offset"></feOffset><feComposite operator="atop" in="offset" in2="black" result="merge"></feComposite><feComposite operator="in" in="merge" in2="SourceGraphic" result="inner-shadow"></feComposite></filter></defs><g filter="url(#editing-hole)"><g transform="translate(-83.46996641159058, 100.02499961853027)"><path d="M3.52 0L3.52-3.07L8.38-3.07L8.38-41.60L3.52-41.60L3.52-44.67L14.91-44.67L39.17-9.41L39.42-9.41L39.42-41.60L34.56-41.60L34.56-44.67L48.06-44.67L48.06-41.60L43.20-41.60L43.20 0L38.59 0L12.42-38.08L12.16-38.08L12.16-3.07L17.02-3.07L17.02 0L3.52 0ZM69.12-2.56L69.12-2.56L69.12-2.56Q71.49-2.56 73.25-3.36L73.25-3.36L73.25-3.36Q75.01-4.16 76.10-5.54L76.10-5.54L76.10-5.54Q77.18-6.91 77.73-8.80L77.73-8.80L77.73-8.80Q78.27-10.69 78.27-12.86L78.27-12.86L78.27-20.16L78.27-20.16Q78.27-22.34 77.73-24.22L77.73-24.22L77.73-24.22Q77.18-26.11 76.10-27.49L76.10-27.49L76.10-27.49Q75.01-28.86 73.25-29.66L73.25-29.66L73.25-29.66Q71.49-30.46 69.12-30.46L69.12-30.46L69.12-30.46Q66.69-30.46 64.96-29.66L64.96-29.66L64.96-29.66Q63.23-28.86 62.14-27.49L62.14-27.49L62.14-27.49Q61.06-26.11 60.51-24.22L60.51-24.22L60.51-24.22Q59.97-22.34 59.97-20.16L59.97-20.16L59.97-12.86L59.97-12.86Q59.97-10.69 60.51-8.80L60.51-8.80L60.51-8.80Q61.06-6.91 62.14-5.54L62.14-5.54L62.14-5.54Q63.23-4.16 64.96-3.36L64.96-3.36L64.96-3.36Q66.69-2.56 69.12-2.56ZM69.12 0.77L69.12 0.77L69.12 0.77Q65.60 0.77 62.72-0.48L62.72-0.48L62.72-0.48Q59.84-1.73 57.79-3.97L57.79-3.97L57.79-3.97Q55.74-6.21 54.62-9.41L54.62-9.41L54.62-9.41Q53.50-12.61 53.50-16.51L53.50-16.51L53.50-16.51Q53.50-20.42 54.62-23.62L54.62-23.62L54.62-23.62Q55.74-26.82 57.79-29.06L57.79-29.06L57.79-29.06Q59.84-31.30 62.72-32.54L62.72-32.54L62.72-32.54Q65.60-33.79 69.12-33.79L69.12-33.79L69.12-33.79Q72.64-33.79 75.52-32.54L75.52-32.54L75.52-32.54Q78.40-31.30 80.45-29.06L80.45-29.06L80.45-29.06Q82.50-26.82 83.62-23.62L83.62-23.62L83.62-23.62Q84.74-20.42 84.74-16.51L84.74-16.51L84.74-16.51Q84.74-12.61 83.62-9.41L83.62-9.41L83.62-9.41Q82.50-6.21 80.45-3.97L80.45-3.97L80.45-3.97Q78.40-1.73 75.52-0.48L75.52-0.48L75.52-0.48Q72.64 0.77 69.12 0.77ZM101.06 0.38L101.06 0.38L101.06 0.38Q97.41 0.38 96.03-1.06L96.03-1.06L96.03-1.06Q94.66-2.50 94.66-6.02L94.66-6.02L94.66-29.70L90.37-29.70L90.37-33.02L90.88-33.02L90.88-33.02Q92.29-33.02 93.12-33.22L93.12-33.22L93.12-33.22Q93.95-33.41 94.46-33.76L94.46-33.76L94.46-33.76Q94.98-34.11 95.23-34.66L95.23-34.66L95.23-34.66Q95.49-35.20 95.68-35.90L95.68-35.90L97.28-41.60L100.35-41.60L100.35-33.02L108.99-33.02L108.99-29.70L100.35-29.70L100.35-3.33L108.99-3.33L108.99-1.09L108.99-1.09Q107.90-0.45 105.63-0.03L105.63-0.03L105.63-0.03Q103.36 0.38 101.06 0.38ZM141.12 0L129.22-29.95L125.82-29.95L125.82-33.02L139.97-33.02L139.97-29.95L135.42-29.95L144.38-6.27L144.64-6.27L153.28-29.95L148.74-29.95L148.74-33.02L160.70-33.02L160.70-29.95L157.31-29.95L145.41 0L141.12 0ZM173.18 0.77L173.18 0.77L173.18 0.77Q168.51 0.77 165.86-1.63L165.86-1.63L165.86-1.63Q163.20-4.03 163.20-8.19L163.20-8.19L163.20-8.19Q163.20-10.56 164-12.42L164-12.42L164-12.42Q164.80-14.27 166.59-15.49L166.59-15.49L166.59-15.49Q168.38-16.70 171.26-17.34L171.26-17.34L171.26-17.34Q174.14-17.98 178.30-17.98L178.30-17.98L182.98-17.98L182.98-22.72L182.98-22.72Q182.98-26.56 181.09-28.64L181.09-28.64L181.09-28.64Q179.20-30.72 175.36-30.72L175.36-30.72L175.36-30.72Q173.89-30.72 172.45-30.46L172.45-30.46L172.45-30.46Q171.01-30.21 170.11-29.70L170.11-29.70L170.11-29.57L170.11-29.57Q170.88-29.12 171.58-28.35L171.58-28.35L171.58-28.35Q172.29-27.58 172.29-26.11L172.29-26.11L172.29-26.11Q172.29-24.32 171.26-23.36L171.26-23.36L171.26-23.36Q170.24-22.40 168.51-22.40L168.51-22.40L168.51-22.40Q166.85-22.40 165.82-23.39L165.82-23.39L165.82-23.39Q164.80-24.38 164.80-26.30L164.80-26.30L164.80-26.30Q164.80-27.71 165.63-29.06L165.63-29.06L165.63-29.06Q166.46-30.40 168.06-31.46L168.06-31.46L168.06-31.46Q169.66-32.51 172.03-33.15L172.03-33.15L172.03-33.15Q174.40-33.79 177.41-33.79L177.41-33.79L177.41-33.79Q182.72-33.79 185.70-31.10L185.70-31.10L185.70-31.10Q188.67-28.42 188.67-23.55L188.67-23.55L188.67-2.94L193.47-2.94L193.47-0.51L193.47-0.51Q192.77 0 191.55 0.38L191.55 0.38L191.55 0.38Q190.34 0.77 188.80 0.77L188.80 0.77L188.80 0.77Q186.11 0.77 184.70-0.70L184.70-0.70L184.70-0.70Q183.30-2.18 183.30-4.61L183.30-4.61L183.30-4.80L182.98-4.80L182.98-4.80Q182.46-3.71 181.73-2.72L181.73-2.72L181.73-2.72Q180.99-1.73 179.84-0.96L179.84-0.96L179.84-0.96Q178.69-0.19 177.06 0.29L177.06 0.29L177.06 0.29Q175.42 0.77 173.18 0.77ZM175.62-2.94L175.62-2.94L175.62-2.94Q177.15-2.94 178.46-3.33L178.46-3.33L178.46-3.33Q179.78-3.71 180.80-4.48L180.80-4.48L180.80-4.48Q181.82-5.25 182.40-6.40L182.40-6.40L182.40-6.40Q182.98-7.55 182.98-9.15L182.98-9.15L182.98-15.23L178.88-15.23L178.88-15.23Q176.13-15.23 174.27-14.85L174.27-14.85L174.27-14.85Q172.42-14.46 171.33-13.70L171.33-13.70L171.33-13.70Q170.24-12.93 169.76-11.78L169.76-11.78L169.76-11.78Q169.28-10.62 169.28-9.09L169.28-9.09L169.28-7.81L169.28-7.81Q169.28-5.38 170.94-4.16L170.94-4.16L170.94-4.16Q172.61-2.94 175.62-2.94ZM197.95 0L197.95-3.07L202.75-3.07L202.75-44.10L197.95-44.99L197.95-47.30L208.45-49.28L208.45-3.07L213.25-3.07L213.25 0L197.95 0ZM226.30-40.45L226.30-40.45L226.30-40.45Q224.58-40.45 223.62-41.47L223.62-41.47L223.62-41.47Q222.66-42.50 222.66-43.97L222.66-43.97L222.66-44.35L222.66-44.35Q222.66-45.82 223.62-46.85L223.62-46.85L223.62-46.85Q224.58-47.87 226.30-47.87L226.30-47.87L226.30-47.87Q228.03-47.87 228.99-46.85L228.99-46.85L228.99-46.85Q229.95-45.82 229.95-44.35L229.95-44.35L229.95-43.97L229.95-43.97Q229.95-42.50 228.99-41.47L228.99-41.47L228.99-41.47Q228.03-40.45 226.30-40.45ZM218.69 0L218.69-3.07L223.49-3.07L223.49-28.61L218.69-29.50L218.69-31.81L229.18-33.79L229.18-3.07L233.98-3.07L233.98 0L218.69 0ZM253.25 0.77L253.25 0.77L253.25 0.77Q250.11 0.77 247.58-0.35L247.58-0.35L247.58-0.35Q245.06-1.47 243.23-3.68L243.23-3.68L243.23-3.68Q241.41-5.89 240.42-9.09L240.42-9.09L240.42-9.09Q239.42-12.29 239.42-16.51L239.42-16.51L239.42-16.51Q239.42-20.74 240.42-23.94L240.42-23.94L240.42-23.94Q241.41-27.14 243.23-29.34L243.23-29.34L243.23-29.34Q245.06-31.55 247.58-32.67L247.58-32.67L247.58-32.67Q250.11-33.79 253.25-33.79L253.25-33.79L253.25-33.79Q257.22-33.79 259.62-32.13L259.62-32.13L259.62-32.13Q262.02-30.46 263.10-28.10L263.10-28.10L263.36-28.10L263.36-44.10L258.56-44.99L258.56-47.30L269.06-49.28L269.06-4.42L273.86-3.52L273.86-1.22L263.36 0.77L263.36-4.86L263.10-4.86L263.10-4.86Q262.02-2.50 259.62-0.86L259.62-0.86L259.62-0.86Q257.22 0.77 253.25 0.77ZM254.91-3.07L254.91-3.07L254.91-3.07Q256.45-3.07 257.98-3.52L257.98-3.52L257.98-3.52Q259.52-3.97 260.70-4.77L260.70-4.77L260.70-4.77Q261.89-5.57 262.62-6.78L262.62-6.78L262.62-6.78Q263.36-8 263.36-9.54L263.36-9.54L263.36-23.49L263.36-23.49Q263.36-25.02 262.62-26.24L262.62-26.24L262.62-26.24Q261.89-27.46 260.70-28.26L260.70-28.26L260.70-28.26Q259.52-29.06 257.98-29.50L257.98-29.50L257.98-29.50Q256.45-29.95 254.91-29.95L254.91-29.95L254.91-29.95Q250.50-29.95 248.06-27.04L248.06-27.04L248.06-27.04Q245.63-24.13 245.63-19.26L245.63-19.26L245.63-13.76L245.63-13.76Q245.63-8.90 248.06-5.98L248.06-5.98L248.06-5.98Q250.50-3.07 254.91-3.07ZM303.30 0L294.85-29.95L291.46-29.95L291.46-33.02L305.15-33.02L305.15-29.95L300.61-29.95L307.20-5.44L307.46-5.44L315.46-33.02L320.26-33.02L327.62-5.44L327.87-5.44L334.53-29.95L329.98-29.95L329.98-33.02L341.31-33.02L341.31-29.95L337.92-29.95L329.47 0L323.90 0L316.86-25.47L316.61-25.47L308.80 0L303.30 0ZM352.64-40.45L352.64-40.45L352.64-40.45Q350.91-40.45 349.95-41.47L349.95-41.47L349.95-41.47Q348.99-42.50 348.99-43.97L348.99-43.97L348.99-44.35L348.99-44.35Q348.99-45.82 349.95-46.85L349.95-46.85L349.95-46.85Q350.91-47.87 352.64-47.87L352.64-47.87L352.64-47.87Q354.37-47.87 355.33-46.85L355.33-46.85L355.33-46.85Q356.29-45.82 356.29-44.35L356.29-44.35L356.29-43.97L356.29-43.97Q356.29-42.50 355.33-41.47L355.33-41.47L355.33-41.47Q354.37-40.45 352.64-40.45ZM345.02 0L345.02-3.07L349.82-3.07L349.82-28.61L345.02-29.50L345.02-31.81L355.52-33.79L355.52-3.07L360.32-3.07L360.32 0L345.02 0ZM376 0.38L376 0.38L376 0.38Q372.35 0.38 370.98-1.06L370.98-1.06L370.98-1.06Q369.60-2.50 369.60-6.02L369.60-6.02L369.60-29.70L365.31-29.70L365.31-33.02L365.82-33.02L365.82-33.02Q367.23-33.02 368.06-33.22L368.06-33.22L368.06-33.22Q368.90-33.41 369.41-33.76L369.41-33.76L369.41-33.76Q369.92-34.11 370.18-34.66L370.18-34.66L370.18-34.66Q370.43-35.20 370.62-35.90L370.62-35.90L372.22-41.60L375.30-41.60L375.30-33.02L383.94-33.02L383.94-29.70L375.30-29.70L375.30-3.33L383.94-3.33L383.94-1.09L383.94-1.09Q382.85-0.45 380.58-0.03L380.58-0.03L380.58-0.03Q378.30 0.38 376 0.38ZM388.03 0L388.03-3.07L392.83-3.07L392.83-44.10L388.03-44.99L388.03-47.30L398.53-49.28L398.53-28.10L398.78-28.10L398.78-28.10Q399.17-29.06 399.97-30.08L399.97-30.08L399.97-30.08Q400.77-31.10 401.95-31.94L401.95-31.94L401.95-31.94Q403.14-32.77 404.74-33.28L404.74-33.28L404.74-33.28Q406.34-33.79 408.32-33.79L408.32-33.79L408.32-33.79Q414.46-33.79 417.09-30.69L417.09-30.69L417.09-30.69Q419.71-27.58 419.71-21.38L419.71-21.38L419.71-3.07L424.51-3.07L424.51 0L409.22 0L409.22-3.07L414.02-3.07L414.02-20.93L414.02-20.93Q414.02-25.47 412.16-27.71L412.16-27.71L412.16-27.71Q410.30-29.95 406.27-29.95L406.27-29.95L406.27-29.95Q404.86-29.95 403.49-29.57L403.49-29.57L403.49-29.57Q402.11-29.18 400.99-28.38L400.99-28.38L400.99-28.38Q399.87-27.58 399.20-26.40L399.20-26.40L399.20-26.40Q398.53-25.22 398.53-23.62L398.53-23.62L398.53-3.07L403.33-3.07L403.33 0L388.03 0ZM445.25-2.56L445.25-2.56L445.25-2.56Q447.62-2.56 449.38-3.36L449.38-3.36L449.38-3.36Q451.14-4.16 452.22-5.54L452.22-5.54L452.22-5.54Q453.31-6.91 453.86-8.80L453.86-8.80L453.86-8.80Q454.40-10.69 454.40-12.86L454.40-12.86L454.40-20.16L454.40-20.16Q454.40-22.34 453.86-24.22L453.86-24.22L453.86-24.22Q453.31-26.11 452.22-27.49L452.22-27.49L452.22-27.49Q451.14-28.86 449.38-29.66L449.38-29.66L449.38-29.66Q447.62-30.46 445.25-30.46L445.25-30.46L445.25-30.46Q442.82-30.46 441.09-29.66L441.09-29.66L441.09-29.66Q439.36-28.86 438.27-27.49L438.27-27.49L438.27-27.49Q437.18-26.11 436.64-24.22L436.64-24.22L436.64-24.22Q436.10-22.34 436.10-20.16L436.10-20.16L436.10-12.86L436.10-12.86Q436.10-10.69 436.64-8.80L436.64-8.80L436.64-8.80Q437.18-6.91 438.27-5.54L438.27-5.54L438.27-5.54Q439.36-4.16 441.09-3.36L441.09-3.36L441.09-3.36Q442.82-2.56 445.25-2.56ZM445.25 0.77L445.25 0.77L445.25 0.77Q441.73 0.77 438.85-0.48L438.85-0.48L438.85-0.48Q435.97-1.73 433.92-3.97L433.92-3.97L433.92-3.97Q431.87-6.21 430.75-9.41L430.75-9.41L430.75-9.41Q429.63-12.61 429.63-16.51L429.63-16.51L429.63-16.51Q429.63-20.42 430.75-23.62L430.75-23.62L430.75-23.62Q431.87-26.82 433.92-29.06L433.92-29.06L433.92-29.06Q435.97-31.30 438.85-32.54L438.85-32.54L438.85-32.54Q441.73-33.79 445.25-33.79L445.25-33.79L445.25-33.79Q448.77-33.79 451.65-32.54L451.65-32.54L451.65-32.54Q454.53-31.30 456.58-29.06L456.58-29.06L456.58-29.06Q458.62-26.82 459.74-23.62L459.74-23.62L459.74-23.62Q460.86-20.42 460.86-16.51L460.86-16.51L460.86-16.51Q460.86-12.61 459.74-9.41L459.74-9.41L459.74-9.41Q458.62-6.21 456.58-3.97L456.58-3.97L456.58-3.97Q454.53-1.73 451.65-0.48L451.65-0.48L451.65-0.48Q448.77 0.77 445.25 0.77ZM481.86 0.77L481.86 0.77L481.86 0.77Q475.71 0.77 473.09-2.34L473.09-2.34L473.09-2.34Q470.46-5.44 470.46-11.71L470.46-11.71L470.46-28.61L465.66-29.50L465.66-31.81L476.16-33.79L476.16-12.16L476.16-12.16Q476.16-7.55 478.02-5.31L478.02-5.31L478.02-5.31Q479.87-3.07 483.90-3.07L483.90-3.07L483.90-3.07Q485.31-3.07 486.69-3.46L486.69-3.46L486.69-3.46Q488.06-3.84 489.15-4.64L489.15-4.64L489.15-4.64Q490.24-5.44 490.94-6.62L490.94-6.62L490.94-6.62Q491.65-7.81 491.65-9.41L491.65-9.41L491.65-28.61L486.85-29.50L486.85-31.81L497.34-33.79L497.34-4.42L502.14-3.52L502.14-1.22L491.84 0.77L491.84-4.99L491.58-4.99L491.58-4.99Q491.20-4.03 490.37-3.01L490.37-3.01L490.37-3.01Q489.54-1.98 488.32-1.15L488.32-1.15L488.32-1.15Q487.10-0.32 485.47 0.22L485.47 0.22L485.47 0.22Q483.84 0.77 481.86 0.77ZM517.82 0.38L517.82 0.38L517.82 0.38Q514.18 0.38 512.80-1.06L512.80-1.06L512.80-1.06Q511.42-2.50 511.42-6.02L511.42-6.02L511.42-29.70L507.14-29.70L507.14-33.02L507.65-33.02L507.65-33.02Q509.06-33.02 509.89-33.22L509.89-33.22L509.89-33.22Q510.72-33.41 511.23-33.76L511.23-33.76L511.23-33.76Q511.74-34.11 512-34.66L512-34.66L512-34.66Q512.26-35.20 512.45-35.90L512.45-35.90L514.05-41.60L517.12-41.60L517.12-33.02L525.76-33.02L525.76-29.70L517.12-29.70L517.12-3.33L525.76-3.33L525.76-1.09L525.76-1.09Q524.67-0.45 522.40-0.03L522.40-0.03L522.40-0.03Q520.13 0.38 517.82 0.38ZM558.98 0.77L558.98 0.77L558.98 0.77Q557.44 0.77 556.10 0.42L556.10 0.42L556.10 0.42Q554.75 0.06 553.70-0.48L553.70-0.48L553.70-0.48Q552.64-1.02 551.87-1.73L551.87-1.73L551.87-1.73Q551.10-2.43 550.72-3.20L550.72-3.20L550.46-3.20L550.46 0L546.30 0L546.30-9.98L550.46-9.98L550.46-8.70L550.46-8.70Q550.46-6.02 552.16-4.32L552.16-4.32L552.16-4.32Q553.86-2.62 557.89-2.62L557.89-2.62L557.89-2.62Q561.54-2.62 563.55-3.81L563.55-3.81L563.55-3.81Q565.57-4.99 565.57-7.87L565.57-7.87L565.57-7.87Q565.57-9.98 564.19-11.42L564.19-11.42L564.19-11.42Q562.82-12.86 560.19-13.38L560.19-13.38L556.22-14.21L556.22-14.21Q551.36-15.23 548.90-17.70L548.90-17.70L548.90-17.70Q546.43-20.16 546.43-24.38L546.43-24.38L546.43-24.38Q546.43-28.80 549.50-31.30L549.50-31.30L549.50-31.30Q552.58-33.79 557.82-33.79L557.82-33.79L557.82-33.79Q560.90-33.79 562.88-32.86L562.88-32.86L562.88-32.86Q564.86-31.94 565.50-30.40L565.50-30.40L565.76-30.40L565.76-33.02L569.92-33.02L569.92-23.04L565.76-23.04L565.76-25.54L565.76-25.54Q565.76-27.97 564.03-29.22L564.03-29.22L564.03-29.22Q562.30-30.46 558.59-30.46L558.59-30.46L558.59-30.46Q555.33-30.46 553.50-29.25L553.50-29.25L553.50-29.25Q551.68-28.03 551.68-25.47L551.68-25.47L551.68-25.47Q551.68-23.30 553.15-21.82L553.15-21.82L553.15-21.82Q554.62-20.35 557.12-19.84L557.12-19.84L560.83-19.07L560.83-19.07Q565.89-17.98 568.42-15.58L568.42-15.58L568.42-15.58Q570.94-13.18 570.94-8.96L570.94-8.96L570.94-8.96Q570.94-6.91 570.11-5.15L570.11-5.15L570.11-5.15Q569.28-3.39 567.74-2.08L567.74-2.08L567.74-2.08Q566.21-0.77 564 0L564 0L564 0Q561.79 0.77 558.98 0.77ZM592.70 0.77L592.70 0.77L592.70 0.77Q589.06 0.77 586.18-0.48L586.18-0.48L586.18-0.48Q583.30-1.73 581.31-4L581.31-4L581.31-4Q579.33-6.27 578.30-9.47L578.30-9.47L578.30-9.47Q577.28-12.67 577.28-16.51L577.28-16.51L577.28-16.51Q577.28-20.35 578.43-23.52L578.43-23.52L578.43-23.52Q579.58-26.69 581.60-28.99L581.60-28.99L581.60-28.99Q583.62-31.30 586.37-32.54L586.37-32.54L586.37-32.54Q589.12-33.79 592.38-33.79L592.38-33.79L592.38-33.79Q595.71-33.79 598.37-32.64L598.37-32.64L598.37-32.64Q601.02-31.49 602.85-29.41L602.85-29.41L602.85-29.41Q604.67-27.33 605.66-24.45L605.66-24.45L605.66-24.45Q606.66-21.57 606.66-18.18L606.66-18.18L606.66-16.64L583.62-16.64L583.62-15.04L583.62-15.04Q583.62-9.73 586.34-6.66L586.34-6.66L586.34-6.66Q589.06-3.58 593.60-3.58L593.60-3.58L593.60-3.58Q597.63-3.58 600-5.18L600-5.18L600-5.18Q602.37-6.78 603.71-9.41L603.71-9.41L605.95-8L605.95-8Q605.31-6.27 604.19-4.70L604.19-4.70L604.19-4.70Q603.07-3.14 601.41-1.92L601.41-1.92L601.41-1.92Q599.74-0.70 597.57 0.03L597.57 0.03L597.57 0.03Q595.39 0.77 592.70 0.77ZM583.62-20.61L583.62-19.71L600.64-19.71L600.64-20.42L600.64-20.42Q600.64-22.59 600.16-24.45L600.16-24.45L600.16-24.45Q599.68-26.30 598.69-27.68L598.69-27.68L598.69-27.68Q597.70-29.06 596.13-29.82L596.13-29.82L596.13-29.82Q594.56-30.59 592.38-30.59L592.38-30.59L592.38-30.59Q590.21-30.59 588.58-29.86L588.58-29.86L588.58-29.86Q586.94-29.12 585.82-27.78L585.82-27.78L585.82-27.78Q584.70-26.43 584.16-24.61L584.16-24.61L584.16-24.61Q583.62-22.78 583.62-20.61L583.62-20.61ZM623.36 0.77L623.36 0.77L623.36 0.77Q618.69 0.77 616.03-1.63L616.03-1.63L616.03-1.63Q613.38-4.03 613.38-8.19L613.38-8.19L613.38-8.19Q613.38-10.56 614.18-12.42L614.18-12.42L614.18-12.42Q614.98-14.27 616.77-15.49L616.77-15.49L616.77-15.49Q618.56-16.70 621.44-17.34L621.44-17.34L621.44-17.34Q624.32-17.98 628.48-17.98L628.48-17.98L633.15-17.98L633.15-22.72L633.15-22.72Q633.15-26.56 631.26-28.64L631.26-28.64L631.26-28.64Q629.38-30.72 625.54-30.72L625.54-30.72L625.54-30.72Q624.06-30.72 622.62-30.46L622.62-30.46L622.62-30.46Q621.18-30.21 620.29-29.70L620.29-29.70L620.29-29.57L620.29-29.57Q621.06-29.12 621.76-28.35L621.76-28.35L621.76-28.35Q622.46-27.58 622.46-26.11L622.46-26.11L622.46-26.11Q622.46-24.32 621.44-23.36L621.44-23.36L621.44-23.36Q620.42-22.40 618.69-22.40L618.69-22.40L618.69-22.40Q617.02-22.40 616.00-23.39L616.00-23.39L616.00-23.39Q614.98-24.38 614.98-26.30L614.98-26.30L614.98-26.30Q614.98-27.71 615.81-29.06L615.81-29.06L615.81-29.06Q616.64-30.40 618.24-31.46L618.24-31.46L618.24-31.46Q619.84-32.51 622.21-33.15L622.21-33.15L622.21-33.15Q624.58-33.79 627.58-33.79L627.58-33.79L627.58-33.79Q632.90-33.79 635.87-31.10L635.87-31.10L635.87-31.10Q638.85-28.42 638.85-23.55L638.85-23.55L638.85-2.94L643.65-2.94L643.65-0.51L643.65-0.51Q642.94 0 641.73 0.38L641.73 0.38L641.73 0.38Q640.51 0.77 638.98 0.77L638.98 0.77L638.98 0.77Q636.29 0.77 634.88-0.70L634.88-0.70L634.88-0.70Q633.47-2.18 633.47-4.61L633.47-4.61L633.47-4.80L633.15-4.80L633.15-4.80Q632.64-3.71 631.90-2.72L631.90-2.72L631.90-2.72Q631.17-1.73 630.02-0.96L630.02-0.96L630.02-0.96Q628.86-0.19 627.23 0.29L627.23 0.29L627.23 0.29Q625.60 0.77 623.36 0.77ZM625.79-2.94L625.79-2.94L625.79-2.94Q627.33-2.94 628.64-3.33L628.64-3.33L628.64-3.33Q629.95-3.71 630.98-4.48L630.98-4.48L630.98-4.48Q632.00-5.25 632.58-6.40L632.58-6.40L632.58-6.40Q633.15-7.55 633.15-9.15L633.15-9.15L633.15-15.23L629.06-15.23L629.06-15.23Q626.30-15.23 624.45-14.85L624.45-14.85L624.45-14.85Q622.59-14.46 621.50-13.70L621.50-13.70L621.50-13.70Q620.42-12.93 619.94-11.78L619.94-11.78L619.94-11.78Q619.46-10.62 619.46-9.09L619.46-9.09L619.46-7.81L619.46-7.81Q619.46-5.38 621.12-4.16L621.12-4.16L621.12-4.16Q622.78-2.94 625.79-2.94ZM648.13 0L648.13-3.07L652.93-3.07L652.93-44.10L648.13-44.99L648.13-47.30L658.62-49.28L658.62-3.07L663.42-3.07L663.42 0L648.13 0Z" fill="#ccc"></path></g></g><style>text {
  font-size: 64px;
  font-family: Arial Black;
  dominant-baseline: central;
  text-anchor: middle;
}</style></svg>